<svg xmlns="http://www.w3.org/2000/svg" width="40" height="40" viewBox="0 0 24 24" fill="none" stroke="#3776AB" stroke-width="2" stroke-linecap="round" stroke-linejoin="round">
<path d="M12 9H5a2 2 0 0 0-2 2v4a2 2 0 0 0 2 2h3"></path>
<path d="M12 15h7a2 2 0 0 0 2-2V9a2 2 0 0 0-2-2h-3"></path>
<path d="M8 9V5a2 2 0 0 1 2-2h4a2 2 0 0 1 2 2v5a2 2 0 0 1-2 2h-4a2 2 0 0 0-2 2v5a2 2 0 0 0 2 2h4a2 2 0 0 0 2-2v-4"></path>
<circle cx="9" cy="9" r="1"></circle>
<circle cx="15" cy="15" r="1"></circle>
</svg>
